PathFileType	4	(X/Y/Z)	C:\Users\WrightLab\Desktop\Jo\P1.2Trial11.trc
DataRate	CameraRate	NumFrames	NumMarkers	Units	OrigDataRate	OrigDataStartFrame	OrigNumFrames
100.00	100.00	       101	19	mm	100.00	1	       814
Frame#	Time	Headset_Front			Headset_Back			Headset_Left			Headset_Right			Left_Shoulder			Right_Shoulder			Sternum			C7			Left Elbow			Right Elbow			Left Wrist			Right Wrist			Left ASIS			Right ASIS			S2			Left Knee			Right Knee			Left Ankle			Right Ankle			
		X1	Y1	Z1	X2	Y2	Z2	X3	Y3	Z3	X4	Y4	Z4	X5	Y5	Z5	X6	Y6	Z6	X7	Y7	Z7	X8	Y8	Z8	X9	Y9	Z9	X10	Y10	Z10	X11	Y11	Z11	X12	Y12	Z12	X13	Y13	Z13	X14	Y14	Z14	X15	Y15	Z15	X16	Y16	Z16	X17	Y17	Z17	X18	Y18	Z18	X19	Y19	Z19	

1	0.000																																		-259.39304	1031.82935	2166.25000																						
2	0.010																																		-258.96008	1031.16101	2166.19482																						
3	0.020																																		-258.30380	1030.93628	2166.23291																						
4	0.030																																		-257.15649	1030.70117	2165.09692																						
5	0.040																																		-256.00381	1030.22375	2165.00439																						
6	0.050																																		-254.82562	1030.34351	2163.48267																						
7	0.060																																		-253.16156	1030.45251	2162.07251																						
8	0.070																																		-251.61118	1030.55640	2161.03687																						
9	0.080																																		-250.19676	1030.86914	2160.99707																						
10	0.090																																		-248.21111	1031.76489	2157.89136																						
11	0.100																																		-246.51962	1032.14026	2157.74976																						
12	0.110																																		-244.52142	1033.11450	2154.64160																						
13	0.120																																		-242.37813	1034.06433	2152.98218																						
14	0.130																																		-240.93782	1034.89502	2150.31079																						
15	0.140																																		-238.61292	1035.97070	2146.86108																						
16	0.150																																		-236.89128	1037.31543	2143.99268																						
17	0.160																																		-235.30914	1038.16431	2141.14502																						
18	0.170																																		-233.41762	1039.54333	2138.21606																						
19	0.180																																		-231.87309	1040.28320	2134.54395																						
20	0.190																																		-230.95056	1041.33655	2130.26709																						
21	0.200																																		-229.42642	1042.26807	2125.97046																						
22	0.210																																		-228.47108	1042.64026	2122.81543																						
23	0.220																																		-227.51668	1042.80042	2118.23218																						
24	0.230																																		-227.16351	1042.73474	2113.77246																						
25	0.240																																		-226.68849	1042.22705	2109.33008																						
26	0.250																																		-226.53946	1041.48022	2105.21313																						
27	0.260																																		-226.54121	1040.65112	2100.27710																						
28	0.270																																		-226.95338	1039.42822	2095.00073																						
29	0.280																																		-227.38803	1037.67798	2090.24463																						
30	0.290																																		-228.33231	1035.81763	2084.96802																						
31	0.300																																		-229.28351	1033.55566	2080.12134																						
32	0.310																																		-230.84369	1030.60474	2074.45020																						
33	0.320																																		-232.89690	1027.43921	2068.75342																						
34	0.330																																		-234.98436	1023.90179	2063.63843																						
35	0.340																																		-237.72171	1019.87311	2057.79272																						
36	0.350																																		-240.76021	1015.78265	2051.39746																						
37	0.360																																		-244.54953	1011.26245	2043.72375																						
38	0.370																																		-248.16702	1006.38000	2036.99109																						
39	0.380																																		-252.32617	1001.62354	2030.64844																						
40	0.390																																		-256.89172	996.78308	2022.54187																						
41	0.400																																		-261.51251	991.84668	2014.29321																						
42	0.410																																		-266.41107	986.86017	2007.06335																						
43	0.420																																		-271.19427	982.20905	1999.08276																						
44	0.430																																		-275.97061	978.06415	1990.86194																						
45	0.440																																		-280.56088	974.22632	1982.89587																						
46	0.450																																		-284.79587	970.67200	1975.39197																						
47	0.460																																		-288.15747	967.54401	1967.69238																						
48	0.470																																		-291.71704	965.13989	1958.48218																						
49	0.480																																		-294.25967	962.87372	1949.83655																						
50	0.490																																		-296.47089	960.52777	1940.72034																						
51	0.500																																		-297.82996	958.28943	1932.37000																						
52	0.510																																		-299.24213	956.58551	1921.97607																						
53	0.520																																		-300.04749	954.47821	1911.96289																						
54	0.530																																		-300.94934	953.09076	1900.86511																						
55	0.540																																		-301.18317	950.54639	1890.84583																						
56	0.550																																		-301.46732	949.22937	1879.85217																						
57	0.560																																		-301.67072	947.29340	1868.82996																						
58	0.570																																		-301.72003	945.35010	1856.44507																						
59	0.580																																		-301.95773	943.99438	1845.39319																						
60	0.590																																		-302.33121	942.61664	1832.85132																						
61	0.600																																		-302.62659	940.96619	1819.76196																						
62	0.610																																		-302.72559	938.89642	1807.52478																						
63	0.620																																		-303.55515	937.96320	1795.48401																						
64	0.630																																		-304.25015	936.34717	1782.43640																						
65	0.640																																		-304.93372	935.34827	1770.98181																						
66	0.650																																		-306.49408	934.27692	1756.60938																						
67	0.660																																		-307.53873	933.68274	1745.25085																						
68	0.670																																		-309.21274	932.62341	1733.29309																						
69	0.680																																		-310.54153	931.26459	1720.70337																						
70	0.690																																		-311.65021	931.09052	1708.50208																						
71	0.700																																		-314.38904	930.56085	1697.40796																						
72	0.710																																		-316.33237	929.69983	1686.37085																						
73	0.720																																		-318.37177	928.84222	1674.10352																						
74	0.730																																		-320.44717	928.66046	1664.01868																						
75	0.740																																		-322.69308	929.40344	1652.20703																						
76	0.750																																		-324.70206	929.61005	1643.51208																						
77	0.760																																		-327.05649	929.54138	1632.48364																						
78	0.770																																		-328.98538	930.47351	1623.58618																						
79	0.780																																		-331.32803	930.69983	1612.69580																						
80	0.790																																		-333.27011	931.21130	1604.67981																						
81	0.800																																		-335.48590	932.08228	1594.25903																						
82	0.810																																		-336.69263	932.95251	1586.47607																						
83	0.820																																		-338.34122	933.78058	1578.00134																						
84	0.830																																		-340.32178	934.76929	1569.31934																						
85	0.840																																		-341.41049	934.97327	1561.31970																						
86	0.850																																		-342.24734	935.50879	1554.01331																						
87	0.860																																		-343.52023	935.91003	1546.45752																						
88	0.870																																		-344.57043	935.31964	1538.94324																						
89	0.880																																		-345.21329	935.48651	1531.47437																						
90	0.890																																		-346.19702	934.99310	1524.61731																						
91	0.900																																		-347.26303	934.75958	1517.99976																						
92	0.910																																		-348.37955	933.37885	1511.32764																						
93	0.920																																		-349.39349	933.07062	1504.82507																						
94	0.930																																		-350.35770	931.91693	1498.74646																						
95	0.940																																		-351.54486	930.86786	1493.15686																						
96	0.950																																		-353.55835	929.29944	1487.14624																						
97	0.960																																		-354.31573	927.85840	1483.51025																						
98	0.970																																		-355.63702	925.84808	1478.66992																						
99	0.980																																		-357.02203	924.39697	1473.88806																						
100	0.990																																		-358.84769	922.47150	1469.16370																						
101	1.000																																		-360.69263	920.27246	1464.37415																						
